<svg xmlns="http://www.w3.org/2000/svg" viewBox="0 0 64 64" fill="none"><circle cx="32" cy="32" r="26" stroke="#c8a96e" stroke-width="2"/><g fill="#c8a96e"><polygon points="32,8 33.5,13 38,13 34.5,16 36,21 32,18 28,21 29.5,16 26,13 30.5,13"/><polygon points="16,14 17.5,19 22,19 18.5,22 20,27 16,24 12,27 13.5,22 10,19 14.5,19"/><polygon points="48,14 49.5,19 54,19 50.5,22 52,27 48,24 44,27 45.5,22 42,19 46.5,19"/><polygon points="10,32 11.5,37 16,37 12.5,40 14,45 10,42 6,45 7.5,40 4,37 8.5,37"/><polygon points="54,32 55.5,37 60,37 56.5,40 58,45 54,42 50,45 51.5,40 48,37 52.5,37"/></g></svg>
