<svg width="1315" height="487" viewBox="0 0 1315 487" fill="none" xmlns="http://www.w3.org/2000/svg">
<path d="M42.6186 44.9973C39.5791 42.09 38.0594 38.9845 38.0594 35.6807C38.0594 33.5663 38.588 31.8483 39.6452 30.5268C40.8346 29.2053 42.4204 28.5446 44.4026 28.5446C46.6492 28.5446 48.4332 29.9982 49.7548 32.9055C51.2084 35.8128 52.0013 39.9756 52.1335 45.3938H90.7876C90.7876 37.2004 89.0035 29.6678 85.4354 22.796C81.9995 15.9242 76.7135 10.4399 69.5774 6.34324C62.4412 2.11441 53.5871 0 43.0151 0C34.4253 0 26.8927 1.65188 20.4173 4.95565C14.0741 8.12726 9.1184 12.7525 5.55033 18.8315C2.11441 24.9104 0.396451 32.0465 0.396451 40.2399C0.396451 46.1867 1.71796 51.3406 4.36097 55.7015C7.00399 60.0625 10.1756 63.7627 13.8758 66.8022C17.576 69.7095 22.5317 73.1454 28.7428 77.1099C34.2931 80.678 38.6541 83.7175 41.8257 86.2283C44.9973 88.6071 47.6403 91.4483 49.7548 94.7521C51.8692 98.0558 52.9264 101.888 52.9264 106.249C52.9264 109.157 52.2656 111.403 50.9441 112.989C49.7547 114.575 48.4332 115.368 46.9796 115.368C44.3366 115.368 42.2222 113.517 40.6363 109.817C39.1827 105.985 38.4559 100.236 38.4559 92.5716H0C0 103.011 1.58581 111.998 4.75743 119.53C7.92904 127.063 13.149 132.944 20.4173 137.172C27.8177 141.401 37.5308 143.516 49.5565 143.516C56.8248 143.516 63.7627 142.194 70.3703 139.551C76.9778 136.776 82.396 132.415 86.6248 126.468C90.8536 120.521 92.968 112.923 92.968 103.672C92.968 96.5361 91.2501 90.1268 87.8142 84.4443C84.5104 78.7618 80.5459 74.0044 75.9206 70.172C71.2953 66.2075 65.2825 61.6483 57.882 56.4944C50.878 51.737 45.7902 47.9046 42.6186 44.9973Z" fill="#EDF979"/>
<path d="M155.612 2.37871H98.9195V141.137H133.609V57.2873H137.574L150.458 141.137H186.932L199.817 57.2873H203.781V141.137H238.471V2.37871H181.778L170.281 89.2017H168.1L155.612 2.37871Z" fill="#EDF979"/>
<path fill-rule="evenodd" clip-rule="evenodd" d="M307.602 108.826L312.04 141.137H349.307L327.898 2.37871H266.647L244.445 141.137H281.712L285.617 108.826H307.602ZM303.926 82.0656L297.173 32.9055H294.795L288.852 82.0656H303.926Z" fill="#EDF979"/>
<path d="M393.874 114.376V2.37871H355.22V141.137H427.374V114.376H393.874Z" fill="#EDF979"/>
<path d="M471.887 114.376V2.37871H433.232V141.137H505.387V114.376H471.887Z" fill="#EDF979"/>
<path d="M589.583 141.137V2.37871H550.929V141.137H589.583Z" fill="#EDF979"/>
<path d="M640.201 44.9973C637.161 42.09 635.641 38.9845 635.641 35.6807C635.641 33.5663 636.17 31.8483 637.227 30.5268C638.417 29.2053 640.002 28.5446 641.985 28.5446C644.231 28.5446 646.015 29.9982 647.337 32.9055C648.79 35.8128 649.583 39.9756 649.715 45.3938H688.37C688.37 37.2004 686.586 29.6678 683.017 22.796C679.581 15.9242 674.295 10.4399 667.159 6.34324C660.023 2.11441 651.169 0 640.597 0C632.007 0 624.475 1.65188 617.999 4.95565C611.656 8.12726 606.7 12.7525 603.132 18.8315C599.696 24.9104 597.978 32.0465 597.978 40.2399C597.978 46.1867 599.3 51.3406 601.943 55.7015C604.586 60.0625 607.758 63.7627 611.458 66.8022C615.158 69.7095 620.114 73.1454 626.325 77.1099C631.875 80.678 636.236 83.7175 639.408 86.2283C642.579 88.6071 645.222 91.4483 647.337 94.7521C649.451 98.0558 650.508 101.888 650.508 106.249C650.508 109.157 649.848 111.403 648.526 112.989C647.337 114.575 646.015 115.368 644.562 115.368C641.919 115.368 639.804 113.517 638.218 109.817C636.765 105.985 636.038 100.236 636.038 92.5716H597.582C597.582 103.011 599.168 111.998 602.339 119.53C605.511 127.063 610.731 132.944 617.999 137.172C625.4 141.401 635.113 143.516 647.138 143.516C654.407 143.516 661.345 142.194 667.952 139.551C674.56 136.776 679.978 132.415 684.207 126.468C688.436 120.521 690.55 112.923 690.55 103.672C690.55 96.5361 688.832 90.1268 685.396 84.4443C682.092 78.7618 678.128 74.0044 673.503 70.172C668.877 66.2075 662.864 61.6483 655.464 56.4944C648.46 51.737 643.372 47.9046 640.201 44.9973Z" fill="#EDF979"/>
<path d="M792.878 2.37871H736.185V141.137H770.875V57.2873H774.839L787.724 141.137H824.198L837.082 57.2873H841.047V141.137H875.737V2.37871H819.044L807.547 89.2017H805.366L792.878 2.37871Z" fill="#EDF979"/>
<path d="M922.348 141.137V2.37871H883.693V141.137H922.348Z" fill="#EDF979"/>
<path d="M946.006 137.172C951.292 141.005 957.702 142.921 965.234 142.921C973.031 142.921 978.912 139.155 982.876 131.622C986.841 124.09 989.021 113.187 989.418 98.9148H992.391V141.137H1019.15V67.0004H980.497V92.7698C980.497 98.4523 980.101 102.351 979.308 104.465C978.515 106.447 976.996 107.439 974.749 107.439C973.295 107.439 972.172 107.108 971.379 106.447C970.586 105.655 969.992 104.663 969.595 103.474C969.199 102.153 969 100.567 969 98.7166V44.2044C969 42.4865 969.199 40.9667 969.595 39.6452C970.124 38.3237 970.784 37.3326 971.577 36.6718C972.502 35.8789 973.56 35.4825 974.749 35.4825C976.996 35.4825 978.515 36.6057 979.308 38.8523C980.101 41.0989 980.497 45.5259 980.497 52.1335H1019.15C1019.15 36.2754 1015.78 23.655 1009.04 14.2723C1002.3 4.75742 990.937 0 974.947 0C964.507 0 955.917 2.18049 949.178 6.54146C942.57 10.7703 937.747 16.1224 934.707 22.5978C931.8 28.941 930.346 35.4825 930.346 42.2222V100.699C930.346 108.231 931.668 115.235 934.311 121.711C936.954 128.054 940.852 133.208 946.006 137.172Z" fill="#EDF979"/>
<path d="M1065.79 54.1157V2.37871H1027.14V141.137H1065.79V80.8762H1077.29V141.137H1115.94V2.37871H1077.29V54.1157H1065.79Z" fill="#EDF979"/>
<path d="M1182.8 141.137V29.1392H1204.8V6.88208L1239.53 87.4177V141.137H1278.19V87.0213L1314.86 2.37871H1275.41L1255.87 48.6923L1240.33 2.37871H1121.94V29.1392H1144.15V141.137H1182.8Z" fill="#EDF979"/>
<path d="M232.23 194.692C230.13 192.683 229.079 190.536 229.079 188.253C229.079 186.792 229.445 185.604 230.175 184.691C230.997 183.778 232.093 183.321 233.463 183.321C235.016 183.321 236.249 184.326 237.162 186.335C238.167 188.344 238.715 191.221 238.806 194.966H265.521C265.521 189.303 264.288 184.097 261.822 179.348C259.448 174.599 255.794 170.808 250.862 167.977C245.93 165.054 239.811 163.593 232.504 163.593C226.568 163.593 221.362 164.735 216.886 167.018C212.502 169.21 209.077 172.407 206.611 176.608C204.237 180.809 203.049 185.741 203.049 191.404C203.049 195.514 203.963 199.076 205.789 202.09C207.616 205.104 209.808 207.661 212.365 209.762C214.923 211.771 218.348 214.146 222.64 216.886C226.476 219.352 229.49 221.453 231.682 223.188C233.874 224.832 235.701 226.796 237.162 229.079C238.624 231.362 239.354 234.011 239.354 237.025C239.354 239.034 238.898 240.587 237.984 241.683C237.162 242.779 236.249 243.327 235.244 243.327C233.418 243.327 231.956 242.048 230.86 239.491C229.856 236.842 229.353 232.869 229.353 227.572H202.775C202.775 234.787 203.871 240.998 206.063 246.204C208.255 251.41 211.863 255.474 216.886 258.397C222.001 261.32 228.714 262.781 237.025 262.781C242.049 262.781 246.844 261.868 251.41 260.041C255.977 258.123 259.722 255.109 262.644 250.999C265.567 246.889 267.028 241.637 267.028 235.244C267.028 230.312 265.841 225.882 263.466 221.955C261.183 218.028 258.443 214.74 255.246 212.091C252.05 209.351 247.894 206.2 242.779 202.638C237.939 199.35 234.422 196.701 232.23 194.692Z" fill="#EDF979"/>
<path d="M310.324 165.237H271.142V261.137H295.117V203.186H297.857L306.762 261.137H331.97L340.875 203.186H343.615V261.137H367.59V165.237H328.408L320.462 225.243H318.955L310.324 165.237Z" fill="#EDF979"/>
<path fill-rule="evenodd" clip-rule="evenodd" d="M415.368 238.806L418.436 261.137H444.192L429.396 165.237H387.063L371.719 261.137H397.475L400.174 238.806H415.368ZM412.828 220.311L408.161 186.335H406.517L402.41 220.311H412.828Z" fill="#EDF979"/>
<path d="M474.993 242.642V165.237H448.278V261.137H498.146V242.642H474.993Z" fill="#EDF979"/>
<path d="M528.91 242.642V165.237H502.195V261.137H552.063V242.642H528.91Z" fill="#EDF979"/>
<path d="M610.254 261.137V165.237H583.539V261.137H610.254Z" fill="#EDF979"/>
<path d="M645.237 194.692C643.137 192.683 642.086 190.536 642.086 188.253C642.086 186.792 642.452 185.604 643.182 184.691C644.004 183.778 645.1 183.321 646.47 183.321C648.023 183.321 649.256 184.326 650.169 186.335C651.174 188.344 651.722 191.221 651.813 194.966H678.528C678.528 189.303 677.295 184.097 674.829 179.348C672.455 174.599 668.801 170.808 663.869 167.977C658.937 165.054 652.818 163.593 645.511 163.593C639.575 163.593 634.369 164.735 629.893 167.018C625.509 169.21 622.084 172.407 619.618 176.608C617.244 180.809 616.056 185.741 616.056 191.404C616.056 195.514 616.97 199.076 618.796 202.09C620.623 205.104 622.815 207.661 625.372 209.762C627.93 211.771 631.355 214.146 635.647 216.886C639.483 219.352 642.497 221.453 644.689 223.188C646.881 224.832 648.708 226.796 650.169 229.079C651.631 231.362 652.361 234.011 652.361 237.025C652.361 239.034 651.905 240.587 650.991 241.683C650.169 242.779 649.256 243.327 648.251 243.327C646.425 243.327 644.963 242.048 643.867 239.491C642.863 236.842 642.36 232.869 642.36 227.572H615.782C615.782 234.787 616.878 240.998 619.07 246.204C621.262 251.41 624.87 255.474 629.893 258.397C635.008 261.32 641.721 262.781 650.032 262.781C655.056 262.781 659.851 261.868 664.417 260.041C668.984 258.123 672.729 255.109 675.651 250.999C678.574 246.889 680.035 241.637 680.035 235.244C680.035 230.312 678.848 225.882 676.473 221.955C674.19 218.028 671.45 214.74 668.253 212.091C665.057 209.351 660.901 206.2 655.786 202.638C650.946 199.35 647.429 196.701 645.237 194.692Z" fill="#EDF979"/>
<path d="M750.757 165.237H711.575V261.137H735.55V203.186H738.29L747.195 261.137H772.403L781.308 203.186H784.048V261.137H808.023V165.237H768.841L760.895 225.243H759.388L750.757 165.237Z" fill="#EDF979"/>
<path d="M840.238 261.137V165.237H813.523V261.137H840.238Z" fill="#EDF979"/>
<path d="M856.589 258.397C860.242 261.046 864.672 262.37 869.878 262.37C875.266 262.37 879.331 259.767 882.071 254.561C884.811 249.355 886.318 241.82 886.592 231.956H888.647V261.137H907.142V209.899H880.427V227.709C880.427 231.636 880.153 234.331 879.605 235.792C879.057 237.162 878.006 237.847 876.454 237.847C875.449 237.847 874.673 237.619 874.125 237.162C873.577 236.614 873.166 235.929 872.892 235.107C872.618 234.194 872.481 233.098 872.481 231.819V194.144C872.481 192.957 872.618 191.906 872.892 190.993C873.257 190.08 873.714 189.395 874.262 188.938C874.901 188.39 875.632 188.116 876.454 188.116C878.006 188.116 879.057 188.892 879.605 190.445C880.153 191.998 880.427 195.057 880.427 199.624H907.142C907.142 188.664 904.813 179.942 900.155 173.457C895.497 166.881 887.642 163.593 876.591 163.593C869.375 163.593 863.439 165.1 858.781 168.114C854.214 171.037 850.88 174.736 848.78 179.211C846.77 183.595 845.766 188.116 845.766 192.774V233.189C845.766 238.395 846.679 243.236 848.506 247.711C850.332 252.095 853.027 255.657 856.589 258.397Z" fill="#EDF979"/>
<path d="M939.375 200.994V165.237H912.66V261.137H939.375V219.489H947.321V261.137H974.036V165.237H947.321V200.994H939.375Z" fill="#EDF979"/>
<path d="M1020.24 261.137V183.732H1035.45V168.349L1059.45 224.01V261.137H1086.17V223.736L1111.51 165.237H1084.25L1070.75 197.246L1060 165.237H978.185V183.732H993.529V261.137H1020.24Z" fill="#EDF979"/>
<path d="M381.691 300.321C381.691 301.788 382.366 303.166 383.715 304.457C385.123 305.748 387.382 307.449 390.491 309.561C393.777 311.849 396.446 313.873 398.499 315.633C400.553 317.334 402.313 319.446 403.779 321.969C405.305 324.492 406.067 327.337 406.067 330.505C406.067 334.612 405.129 337.985 403.251 340.625C401.374 343.265 398.969 345.201 396.035 346.433C393.102 347.606 390.022 348.193 386.795 348.193C381.457 348.193 377.145 347.254 373.859 345.377C370.633 343.5 368.315 340.889 366.907 337.545C365.499 334.201 364.795 330.212 364.795 325.577H381.867C381.867 328.98 382.19 331.532 382.835 333.233C383.539 334.876 384.478 335.697 385.651 335.697C386.297 335.697 386.883 335.345 387.411 334.641C387.998 333.937 388.291 332.94 388.291 331.649C388.291 329.713 387.822 328.012 386.883 326.545C385.945 325.078 384.771 323.817 383.363 322.761C381.955 321.646 380.019 320.297 377.555 318.713C374.798 316.953 372.598 315.428 370.955 314.137C369.313 312.788 367.905 311.145 366.731 309.209C365.558 307.273 364.971 304.985 364.971 302.345C364.971 298.708 365.734 295.54 367.259 292.841C368.843 290.142 371.043 288.089 373.859 286.681C376.734 285.214 380.078 284.481 383.891 284.481C388.585 284.481 392.515 285.42 395.683 287.297C398.851 289.116 401.198 291.55 402.723 294.601C404.307 297.652 405.099 300.996 405.099 304.633H387.939C387.881 302.228 387.529 300.38 386.883 299.089C386.297 297.798 385.505 297.153 384.507 297.153C383.627 297.153 382.923 297.446 382.395 298.033C381.926 298.62 381.691 299.382 381.691 300.321Z" fill="#EDF979"/>
<path d="M408.71 285.537H433.878L439.422 324.081H440.39L445.494 285.537H470.662V347.137H455.262V309.913H453.502L447.782 347.137H431.59L425.87 309.913H424.11V347.137H408.71V285.537Z" fill="#EDF979"/>
<path fill-rule="evenodd" clip-rule="evenodd" d="M503.322 347.137L501.352 332.793H491.592L489.858 347.137H473.314L483.17 285.537H510.362L519.866 347.137H503.322ZM496.722 299.089L499.72 320.913H493.028L495.666 299.089H496.722Z" fill="#EDF979"/>
<path d="M539.651 285.537V335.257H554.523V347.137H522.491V285.537H539.651Z" fill="#EDF979"/>
<path d="M574.284 285.537V335.257H589.156V347.137H557.124V285.537H574.284Z" fill="#EDF979"/>
<path d="M626.534 285.537V347.137H609.374V285.537H626.534Z" fill="#EDF979"/>
<path d="M646.981 300.321C646.981 301.788 647.655 303.166 649.005 304.457C650.413 305.748 652.671 307.449 655.781 309.561C659.066 311.849 661.735 313.873 663.789 315.633C665.842 317.334 667.602 319.446 669.069 321.969C670.594 324.492 671.357 327.337 671.357 330.505C671.357 334.612 670.418 337.985 668.541 340.625C666.663 343.265 664.258 345.201 661.325 346.433C658.391 347.606 655.311 348.193 652.085 348.193C646.746 348.193 642.434 347.254 639.148 345.377C635.922 343.5 633.605 340.889 632.197 337.545C630.789 334.201 630.085 330.212 630.085 325.577H647.157C647.157 328.98 647.479 331.532 648.125 333.233C648.829 334.876 649.767 335.697 650.941 335.697C651.586 335.697 652.173 335.345 652.701 334.641C653.287 333.937 653.581 332.94 653.581 331.649C653.581 329.713 653.111 328.012 652.173 326.545C651.234 325.078 650.061 323.817 648.653 322.761C647.245 321.646 645.309 320.297 642.845 318.713C640.087 316.953 637.887 315.428 636.245 314.137C634.602 312.788 633.194 311.145 632.021 309.209C630.847 307.273 630.26 304.985 630.26 302.345C630.26 298.708 631.023 295.54 632.549 292.841C634.133 290.142 636.333 288.089 639.148 286.681C642.023 285.214 645.367 284.481 649.181 284.481C653.874 284.481 657.805 285.42 660.973 287.297C664.141 289.116 666.487 291.55 668.013 294.601C669.596 297.652 670.389 300.996 670.389 304.633H653.229C653.17 302.228 652.818 300.38 652.173 299.089C651.586 297.798 650.794 297.153 649.797 297.153C648.917 297.153 648.213 297.446 647.685 298.033C647.215 298.62 646.981 299.382 646.981 300.321Z" fill="#EDF979"/>
<path d="M691.616 285.537H716.784L722.328 324.081H723.296L728.4 285.537H753.568V347.137H738.168V309.913H736.408L730.688 347.137H714.496L708.776 309.913H707.016V347.137H691.616V285.537Z" fill="#EDF979"/>
<path d="M774.26 285.537V347.137H757.1V285.537H774.26Z" fill="#EDF979"/>
<path d="M793.299 347.929C789.955 347.929 787.11 347.078 784.763 345.377C782.475 343.617 780.744 341.329 779.571 338.513C778.398 335.638 777.811 332.529 777.811 329.185V303.225C777.811 300.233 778.456 297.329 779.747 294.513C781.096 291.638 783.238 289.262 786.171 287.385C789.163 285.449 792.976 284.481 797.611 284.481C804.71 284.481 809.755 286.593 812.747 290.817C815.739 294.982 817.235 300.585 817.235 307.625H800.075C800.075 304.692 799.899 302.726 799.547 301.729C799.195 300.732 798.52 300.233 797.523 300.233C796.995 300.233 796.526 300.409 796.115 300.761C795.763 301.054 795.47 301.494 795.235 302.081C795.059 302.668 794.971 303.342 794.971 304.105V328.305C794.971 329.126 795.059 329.83 795.235 330.417C795.411 330.945 795.675 331.385 796.027 331.737C796.379 332.03 796.878 332.177 797.523 332.177C798.52 332.177 799.195 331.737 799.547 330.857C799.899 329.918 800.075 328.188 800.075 325.665V314.225H817.235V347.137H805.355V328.393H804.035C803.859 334.729 802.891 339.569 801.131 342.913C799.371 346.257 796.76 347.929 793.299 347.929Z" fill="#EDF979"/>
<path d="M837.94 285.537V308.505H843.044V285.537H860.204V347.137H843.044V320.385H837.94V347.137H820.78V285.537H837.94Z" fill="#EDF979"/>
<path d="M889.885 297.417V347.137H872.725V297.417H862.869V285.537H915.422L922.324 306.097L930.998 285.537H948.51L932.23 323.113V347.137H915.07V323.289L899.653 287.536V297.417H889.885Z" fill="#EDF979"/>
<path d="M482.695 382.977C481.837 382.156 481.407 381.278 481.407 380.345C481.407 379.748 481.557 379.262 481.855 378.889C482.191 378.516 482.639 378.329 483.199 378.329C483.834 378.329 484.338 378.74 484.711 379.561C485.122 380.382 485.346 381.558 485.383 383.089H496.303C496.303 380.774 495.799 378.646 494.791 376.705C493.821 374.764 492.327 373.214 490.311 372.057C488.295 370.862 485.794 370.265 482.807 370.265C480.381 370.265 478.253 370.732 476.423 371.665C474.631 372.561 473.231 373.868 472.223 375.585C471.253 377.302 470.767 379.318 470.767 381.633C470.767 383.313 471.141 384.769 471.887 386.001C472.634 387.233 473.53 388.278 474.575 389.137C475.621 389.958 477.021 390.929 478.775 392.049C480.343 393.057 481.575 393.916 482.471 394.625C483.367 395.297 484.114 396.1 484.711 397.033C485.309 397.966 485.607 399.049 485.607 400.281C485.607 401.102 485.421 401.737 485.047 402.185C484.711 402.633 484.338 402.857 483.927 402.857C483.181 402.857 482.583 402.334 482.135 401.289C481.725 400.206 481.519 398.582 481.519 396.417H470.655C470.655 399.366 471.103 401.905 471.999 404.033C472.895 406.161 474.37 407.822 476.423 409.017C478.514 410.212 481.258 410.809 484.655 410.809C486.709 410.809 488.669 410.436 490.535 409.689C492.402 408.905 493.933 407.673 495.127 405.993C496.322 404.313 496.919 402.166 496.919 399.553C496.919 397.537 496.434 395.726 495.463 394.121C494.53 392.516 493.41 391.172 492.103 390.089C490.797 388.969 489.098 387.681 487.007 386.225C485.029 384.881 483.591 383.798 482.695 382.977Z" fill="#EDF979"/>
<path d="M514.617 370.937H498.601V410.137H508.401V386.449H509.521L513.161 410.137H523.465L527.105 386.449H528.225V410.137H538.025V370.937H522.009L518.761 395.465H518.145L514.617 370.937Z" fill="#EDF979"/>
<path fill-rule="evenodd" clip-rule="evenodd" d="M557.555 401.009L558.809 410.137H569.337L563.289 370.937H545.985L539.713 410.137H550.241L551.344 401.009H557.555ZM556.516 393.449L554.609 379.561H553.937L552.258 393.449H556.516Z" fill="#EDF979"/>
<path d="M581.927 402.577V370.937H571.007V410.137H591.391V402.577H581.927Z" fill="#EDF979"/>
<path d="M603.966 402.577V370.937H593.046V410.137H613.43V402.577H603.966Z" fill="#EDF979"/>
<path d="M637.216 410.137V370.937H626.296V410.137H637.216Z" fill="#EDF979"/>
<path d="M651.516 382.977C650.657 382.156 650.228 381.278 650.228 380.345C650.228 379.748 650.377 379.262 650.676 378.889C651.012 378.516 651.46 378.329 652.02 378.329C652.654 378.329 653.158 378.74 653.532 379.561C653.942 380.382 654.166 381.558 654.204 383.089H665.124C665.124 380.774 664.62 378.646 663.612 376.705C662.641 374.764 661.148 373.214 659.132 372.057C657.116 370.862 654.614 370.265 651.628 370.265C649.201 370.265 647.073 370.732 645.244 371.665C643.452 372.561 642.052 373.868 641.044 375.585C640.073 377.302 639.588 379.318 639.588 381.633C639.588 383.313 639.961 384.769 640.708 386.001C641.454 387.233 642.35 388.278 643.396 389.137C644.441 389.958 645.841 390.929 647.596 392.049C649.164 393.057 650.396 393.916 651.292 394.625C652.188 395.297 652.934 396.1 653.532 397.033C654.129 397.966 654.428 399.049 654.428 400.281C654.428 401.102 654.241 401.737 653.868 402.185C653.532 402.633 653.158 402.857 652.748 402.857C652.001 402.857 651.404 402.334 650.956 401.289C650.545 400.206 650.34 398.582 650.34 396.417H639.476C639.476 399.366 639.924 401.905 640.82 404.033C641.716 406.161 643.19 407.822 645.244 409.017C647.334 410.212 650.078 410.809 653.476 410.809C655.529 410.809 657.489 410.436 659.356 409.689C661.222 408.905 662.753 407.673 663.948 405.993C665.142 404.313 665.74 402.166 665.74 399.553C665.74 397.537 665.254 395.726 664.284 394.121C663.35 392.516 662.23 391.172 660.924 390.089C659.617 388.969 657.918 387.681 655.828 386.225C653.849 384.881 652.412 383.798 651.516 382.977Z" fill="#EDF979"/>
<path d="M694.648 370.937H678.632V410.137H688.432V386.449H689.552L693.192 410.137H703.496L707.136 386.449H708.256V410.137H718.056V370.937H702.04L698.792 395.465H698.176L694.648 370.937Z" fill="#EDF979"/>
<path d="M731.224 410.137V370.937H720.304V410.137H731.224Z" fill="#EDF979"/>
<path d="M737.908 409.017C739.401 410.1 741.212 410.641 743.34 410.641C745.542 410.641 747.204 409.577 748.324 407.449C749.444 405.321 750.06 402.241 750.172 398.209H751.012V410.137H758.572V389.193H747.652V396.473C747.652 398.078 747.54 399.18 747.316 399.777C747.092 400.337 746.662 400.617 746.028 400.617C745.617 400.617 745.3 400.524 745.076 400.337C744.852 400.113 744.684 399.833 744.572 399.497C744.46 399.124 744.404 398.676 744.404 398.153V382.753C744.404 382.268 744.46 381.838 744.572 381.465C744.721 381.092 744.908 380.812 745.132 380.625C745.393 380.401 745.692 380.289 746.028 380.289C746.662 380.289 747.092 380.606 747.316 381.241C747.54 381.876 747.652 383.126 747.652 384.993H758.572C758.572 380.513 757.62 376.948 755.716 374.297C753.812 371.609 750.601 370.265 746.084 370.265C743.134 370.265 740.708 370.881 738.804 372.113C736.937 373.308 735.574 374.82 734.716 376.649C733.894 378.441 733.484 380.289 733.484 382.193V398.713C733.484 400.841 733.857 402.82 734.604 404.649C735.35 406.441 736.452 407.897 737.908 409.017Z" fill="#EDF979"/>
<path d="M771.747 385.553V370.937H760.827V410.137H771.747V393.113H774.995V410.137H785.915V370.937H774.995V385.553H771.747Z" fill="#EDF979"/>
<path d="M804.803 410.137V378.497H811.019V372.209L820.83 394.961V410.137H831.75V394.849L842.11 370.937H830.966L825.446 384.021L821.054 370.937H787.611V378.497H793.883V410.137H804.803Z" fill="#EDF979"/>
<path d="M568.971 439.241C568.971 439.708 569.186 440.146 569.615 440.557C570.063 440.968 570.782 441.509 571.771 442.181C572.817 442.909 573.666 443.553 574.319 444.113C574.973 444.654 575.533 445.326 575.999 446.129C576.485 446.932 576.727 447.837 576.727 448.845C576.727 450.152 576.429 451.225 575.831 452.065C575.234 452.905 574.469 453.521 573.535 453.913C572.602 454.286 571.622 454.473 570.595 454.473C568.897 454.473 567.525 454.174 566.479 453.577C565.453 452.98 564.715 452.149 564.267 451.085C563.819 450.021 563.595 448.752 563.595 447.277H569.027C569.027 448.36 569.13 449.172 569.335 449.713C569.559 450.236 569.858 450.497 570.231 450.497C570.437 450.497 570.623 450.385 570.791 450.161C570.978 449.937 571.071 449.62 571.071 449.209C571.071 448.593 570.922 448.052 570.623 447.585C570.325 447.118 569.951 446.717 569.503 446.381C569.055 446.026 568.439 445.597 567.655 445.093C566.778 444.533 566.078 444.048 565.555 443.637C565.033 443.208 564.585 442.685 564.211 442.069C563.838 441.453 563.651 440.725 563.651 439.885C563.651 438.728 563.894 437.72 564.379 436.861C564.883 436.002 565.583 435.349 566.479 434.901C567.394 434.434 568.458 434.201 569.671 434.201C571.165 434.201 572.415 434.5 573.423 435.097C574.431 435.676 575.178 436.45 575.663 437.421C576.167 438.392 576.419 439.456 576.419 440.613H570.959C570.941 439.848 570.829 439.26 570.623 438.849C570.437 438.438 570.185 438.233 569.867 438.233C569.587 438.233 569.363 438.326 569.195 438.513C569.046 438.7 568.971 438.942 568.971 439.241Z" fill="#EDF979"/>
<path d="M577.568 434.537H585.576L587.34 446.801H587.648L589.272 434.537H597.28V454.137H592.38V442.293H591.82L590 454.137H584.848L583.028 442.293H582.468V454.137H577.568V434.537Z" fill="#EDF979"/>
<path fill-rule="evenodd" clip-rule="evenodd" d="M607.672 454.137L607.045 449.573H603.94L603.388 454.137H598.124L601.26 434.537H609.912L612.936 454.137H607.672ZM605.572 438.849L606.526 445.793H604.397L605.236 438.849H605.572Z" fill="#EDF979"/>
<path d="M619.231 434.537V450.357H623.963V454.137H613.771V434.537H619.231Z" fill="#EDF979"/>
<path d="M630.251 434.537V450.357H634.983V454.137H624.791V434.537H630.251Z" fill="#EDF979"/>
<path d="M646.876 434.537V454.137H641.416V434.537H646.876Z" fill="#EDF979"/>
<path d="M653.382 439.241C653.382 439.708 653.596 440.146 654.026 440.557C654.474 440.968 655.192 441.509 656.182 442.181C657.227 442.909 658.076 443.553 658.73 444.113C659.383 444.654 659.943 445.326 660.41 446.129C660.895 446.932 661.138 447.837 661.138 448.845C661.138 450.152 660.839 451.225 660.242 452.065C659.644 452.905 658.879 453.521 657.946 453.913C657.012 454.286 656.032 454.473 655.006 454.473C653.307 454.473 651.935 454.174 650.89 453.577C649.863 452.98 649.126 452.149 648.678 451.085C648.23 450.021 648.006 448.752 648.006 447.277H653.438C653.438 448.36 653.54 449.172 653.746 449.713C653.97 450.236 654.268 450.497 654.642 450.497C654.847 450.497 655.034 450.385 655.202 450.161C655.388 449.937 655.482 449.62 655.482 449.209C655.482 448.593 655.332 448.052 655.034 447.585C654.735 447.118 654.362 446.717 653.914 446.381C653.466 446.026 652.85 445.597 652.066 445.093C651.188 444.533 650.488 444.048 649.966 443.637C649.443 443.208 648.995 442.685 648.622 442.069C648.248 441.453 648.062 440.725 648.062 439.885C648.062 438.728 648.304 437.72 648.79 436.861C649.294 436.002 649.994 435.349 650.89 434.901C651.804 434.434 652.868 434.201 654.082 434.201C655.575 434.201 656.826 434.5 657.834 435.097C658.842 435.676 659.588 436.45 660.074 437.421C660.578 438.392 660.83 439.456 660.83 440.613H655.37C655.351 439.848 655.239 439.26 655.034 438.849C654.847 438.438 654.595 438.233 654.278 438.233C653.998 438.233 653.774 438.326 653.606 438.513C653.456 438.7 653.382 438.942 653.382 439.241Z" fill="#EDF979"/>
<path d="M667.584 434.537H675.592L677.356 446.801H677.664L679.288 434.537H687.296V454.137H682.396V442.293H681.836L680.016 454.137H674.864L673.044 442.293H672.484V454.137H667.584V434.537Z" fill="#EDF979"/>
<path d="M693.88 434.537V454.137H688.42V434.537H693.88Z" fill="#EDF979"/>
<path d="M699.938 454.389C698.874 454.389 697.968 454.118 697.221 453.577C696.494 453.017 695.943 452.289 695.57 451.393C695.196 450.478 695.01 449.489 695.01 448.425V440.165C695.01 439.213 695.215 438.289 695.626 437.393C696.055 436.478 696.736 435.722 697.669 435.125C698.622 434.509 699.835 434.201 701.31 434.201C703.568 434.201 705.174 434.873 706.126 436.217C707.078 437.542 707.554 439.325 707.554 441.565H702.094C702.094 440.632 702.038 440.006 701.926 439.689C701.814 439.372 701.599 439.213 701.281 439.213C701.114 439.213 700.964 439.269 700.833 439.381C700.721 439.474 700.628 439.614 700.554 439.801C700.497 439.988 700.47 440.202 700.47 440.445V448.145C700.47 448.406 700.497 448.63 700.554 448.817C700.609 448.985 700.694 449.125 700.806 449.237C700.918 449.33 701.076 449.377 701.281 449.377C701.599 449.377 701.814 449.237 701.926 448.957C702.038 448.658 702.094 448.108 702.094 447.305V443.665H707.554V454.137H703.773V448.173H703.354C703.298 450.189 702.99 451.729 702.43 452.793C701.87 453.857 701.039 454.389 699.938 454.389Z" fill="#EDF979"/>
<path d="M714.141 434.537V441.845H715.765V434.537H721.225V454.137H715.765V445.625H714.141V454.137H708.681V434.537H714.141Z" fill="#EDF979"/>
<path d="M730.669 438.317V454.137H725.209V438.317H722.073V434.537H738.795L740.991 441.079L743.751 434.537H749.323L744.143 446.493V454.137H738.683V446.549L733.777 435.173V438.317H730.669Z" fill="#EDF979"/>
<path d="M619.355 480.317C619.171 480.141 619.079 479.953 619.079 479.753C619.079 479.668 619.094 479.594 619.122 479.53C619.136 479.497 619.154 479.468 619.175 479.441C619.247 479.361 619.343 479.321 619.463 479.321C619.599 479.321 619.707 479.409 619.787 479.585C619.875 479.761 619.923 480.013 619.931 480.341H622.271C622.271 479.845 622.163 479.389 621.947 478.973C621.739 478.557 621.419 478.225 620.987 477.977C620.555 477.721 620.019 477.593 619.379 477.593C618.859 477.593 618.403 477.693 618.011 477.893C617.627 478.085 617.327 478.365 617.111 478.733C616.903 479.101 616.799 479.533 616.799 480.029C616.799 480.389 616.879 480.701 617.039 480.965C617.199 481.229 617.391 481.453 617.615 481.637C617.839 481.813 618.139 482.021 618.515 482.261C618.851 482.477 619.115 482.661 619.307 482.813C619.499 482.957 619.659 483.129 619.787 483.329C619.915 483.529 619.979 483.761 619.979 484.025C619.979 484.201 619.939 484.337 619.859 484.433C619.787 484.529 619.707 484.577 619.619 484.577C619.459 484.577 619.331 484.465 619.235 484.241C619.147 484.009 619.103 483.661 619.103 483.197H616.775C616.775 483.829 616.871 484.373 617.063 484.829C617.255 485.285 617.571 485.641 618.011 485.897C618.459 486.153 619.047 486.281 619.775 486.281C620.215 486.281 620.635 486.201 621.035 486.041C621.435 485.873 621.763 485.609 622.019 485.249C622.275 484.889 622.403 484.429 622.403 483.869C622.403 483.437 622.299 483.049 622.091 482.705C621.891 482.361 621.651 482.073 621.371 481.841C621.091 481.601 620.727 481.325 620.279 481.013C619.855 480.725 619.547 480.493 619.355 480.317Z" fill="#EDF979"/>
<path d="M626.196 477.737H622.764V486.137H624.864V481.061H625.104L625.884 486.137H628.092L628.872 481.061H629.112V486.137H631.212V477.737H627.78L627.084 482.993H626.952L626.196 477.737Z" fill="#EDF979"/>
<path fill-rule="evenodd" clip-rule="evenodd" d="M635.397 484.181L635.665 486.137H637.921L636.625 477.737H632.917L631.573 486.137H633.829L634.066 484.181H635.397ZM635.174 482.561L634.765 479.585H634.621L634.262 482.561H635.174Z" fill="#EDF979"/>
<path d="M640.619 484.517V477.737H638.279V486.137H642.647V484.517H640.619Z" fill="#EDF979"/>
<path d="M645.342 484.517V477.737H643.002V486.137H647.37V484.517H645.342Z" fill="#EDF979"/>
<path d="M652.467 486.137V477.737H650.127V486.137H652.467Z" fill="#EDF979"/>
<path d="M655.531 480.317C655.347 480.141 655.255 479.953 655.255 479.753C655.255 479.625 655.287 479.521 655.351 479.441C655.423 479.361 655.519 479.321 655.639 479.321C655.775 479.321 655.883 479.409 655.963 479.585C656.051 479.761 656.099 480.013 656.107 480.341H658.447C658.447 479.845 658.339 479.389 658.123 478.973C657.915 478.557 657.595 478.225 657.163 477.977C656.731 477.721 656.195 477.593 655.555 477.593C655.035 477.593 654.579 477.693 654.187 477.893C653.803 478.085 653.503 478.365 653.287 478.733C653.079 479.101 652.975 479.533 652.975 480.029C652.975 480.389 653.055 480.701 653.215 480.965C653.375 481.229 653.567 481.453 653.791 481.637C654.015 481.813 654.315 482.021 654.691 482.261C655.027 482.477 655.291 482.661 655.483 482.813C655.675 482.957 655.835 483.129 655.963 483.329C656.091 483.529 656.155 483.761 656.155 484.025C656.155 484.201 656.115 484.337 656.035 484.433C655.963 484.529 655.883 484.577 655.795 484.577C655.635 484.577 655.507 484.465 655.411 484.241C655.323 484.009 655.279 483.661 655.279 483.197H652.951C652.951 483.829 653.047 484.373 653.239 484.829C653.431 485.285 653.747 485.641 654.187 485.897C654.635 486.153 655.223 486.281 655.951 486.281C656.391 486.281 656.811 486.201 657.211 486.041C657.611 485.873 657.939 485.609 658.195 485.249C658.451 484.889 658.579 484.429 658.579 483.869C658.579 483.437 658.475 483.049 658.267 482.705C658.067 482.361 657.827 482.073 657.547 481.841C657.267 481.601 656.903 481.325 656.455 481.013C656.031 480.725 655.723 480.493 655.531 480.317Z" fill="#EDF979"/>
<path d="M664.774 477.737H661.342V486.137H663.442V481.061H663.682L664.462 486.137H666.67L667.45 481.061H667.69V486.137H669.79V477.737H666.358L665.662 482.993H665.53L664.774 477.737Z" fill="#EDF979"/>
<path d="M672.612 486.137V477.737H670.272V486.137H672.612Z" fill="#EDF979"/>
<path d="M674.044 485.897C674.364 486.129 674.752 486.245 675.208 486.245C675.68 486.245 676.036 486.017 676.276 485.561C676.516 485.105 676.648 484.445 676.672 483.581H676.852V486.137H678.472V481.649H676.132V483.209C676.132 483.553 676.108 483.789 676.06 483.917C676.012 484.037 675.92 484.097 675.784 484.097C675.696 484.097 675.628 484.077 675.58 484.037C675.532 483.989 675.496 483.929 675.472 483.857C675.448 483.777 675.436 483.681 675.436 483.569V480.269C675.436 480.165 675.448 480.073 675.472 479.993C675.504 479.913 675.544 479.853 675.592 479.813C675.648 479.765 675.712 479.741 675.784 479.741C675.92 479.741 676.012 479.809 676.06 479.945C676.108 480.081 676.132 480.349 676.132 480.749H678.472C678.472 479.789 678.268 479.025 677.86 478.457C677.452 477.881 676.764 477.593 675.796 477.593C675.164 477.593 674.644 477.725 674.236 477.989C673.836 478.245 673.544 478.569 673.36 478.961C673.184 479.345 673.096 479.741 673.096 480.149V483.689C673.096 484.145 673.176 484.569 673.336 484.961C673.496 485.345 673.732 485.657 674.044 485.897Z" fill="#EDF979"/>
<path d="M681.295 480.869V477.737H678.955V486.137H681.295V482.489H681.991V486.137H684.331V477.737H681.991V480.869H681.295Z" fill="#EDF979"/>
<path d="M688.379 486.137V479.357H689.711V478.01L691.813 482.885V486.137H694.153V482.861L696.373 477.737H693.985L692.802 480.541L691.861 477.737H684.695V479.357H686.039V486.137H688.379Z" fill="#EDF979"/>
</svg>
